<?xml version="1.0" encoding="UTF-8"?>
<svg id="Layer_2" data-name="Layer 2" xmlns="http://www.w3.org/2000/svg" viewBox="0 0 383.25 384">
  <defs>
    <style>
      .cls-1 {
        fill: #fff;
      }
    </style>
  </defs>
  <g id="Layer_1-2" data-name="Layer 1">
    <g>
      <path class="cls-1" d="M181.89,0h201.36v226.5h-32.94v-28.87c0-.23-.7-3.43-.89-4.36-3.48-16.82-17.51-31.39-34.27-35.04.3-1.99-.5-13.71.02-14.18.13-.11.88-.04,1.42-.43,9.57-6.76,15.96-16.86,17.99-28.5-2.34-23.94,7.72-54.85-13.08-72.39-16.43-13.86-38.6-7.63-58.41-8.98-25.55,4.23-44.62,23.17-47.64,49.02-.05.44-.64.7-.64.86v142.87h-32.94V0Z"/>
      <path class="cls-1" d="M160.19,0l.02,155.65c.15.62-.86,1.85-1.15,1.85H0V0C53.38,0,106.8,0,160.19,0ZM90.57,36.75h-21.71v12.75c-8.88-.53-18.09,3.45-23.56,10.52-12.41,16.04-6.11,43.89,8.94,56.25,6.1,5.01,12.42,6.44,20.23,5.98,4.78-.28,6.4-.26,11.19.03,10.77.64,18.38-3.55,25.13-11.64,9.27-11.11,12.89-31.3,7.11-44.66-4.42-10.22-16.24-17.33-27.34-16.48v-12.75Z"/>
      <path class="cls-1" d="M160.19,384h-23.2c-.44-10.49.6-21.44,0-31.88-1.01-17.54-7.25-36.18-17.61-50.6-1.12-1.57-7.84-8.78-7.84-9.39v-56.62h-63.63v56.62c0,.75-8.04,9.75-9.34,11.64-2.73,3.97-5.55,9.06-7.53,13.46-5.42,12.1-8.05,25.48-8.62,38.61-.41,9.32.37,18.82.03,28.16H0v-204.75h159.06c.29,0,1.3,1.23,1.15,1.85l-.02,202.9Z"/>
      <path class="cls-1" d="M383.25,249v67.5l-102.11-.06c-2.74-3.65-4.07-7.97-7.16-11.58-15.23-17.85-44.05-14.06-55.3,6.13-.65,1.16-2.1,5.52-2.73,5.52h-34.06v-67.5h201.36Z"/>
      <path class="cls-1" d="M181.89,384v-45.75h34.06c.82,0,3.43,6.51,4.22,7.78,6.12,9.85,17.09,14.35,28.11,15.36,1.55.14,7.46-1.06,9.44-1.55,6.82-1.69,14.1-6.87,18.11-12.61,1.79-2.56,3.86-5.87,4.15-8.97h103.29s0,45.74,0,45.74h-201.36Z"/>
      <path class="cls-1" d="M44.91,384v-37.13c2.38-15.64,10.16-32.55,22.06-43.14.54-.48,2.64-1.34,2.64-1.85v-44.62h20.21v43.87c0,.48,5.77,5.59,6.76,6.73,12.04,13.89,17.77,29.81,18.7,48.02.47,9.24-.35,18.85,0,28.13H44.91Z"/>
      <path class="cls-1" d="M328.61,226.5h-92.07v-26.62c0-.36,1.3-4.85,1.65-5.84,2.42-6.89,9.75-13.01,16.82-14.65,1.02-.24,1.97.01,2.87-.13,11.36-1.8,34.57-1.68,46.44-.78,9.5.72,18.81,5.8,22.44,15.01.32.82,1.85,5.35,1.85,5.65v27.37Z"/>
      <path class="cls-1" d="M312.89,72h-31.06c-.15,0-.41.58-.85.64-14.94,2.11-25.21,11.63-28,26.7l-.05,56.95c-.45.68-1.13,1.58-1.9,1.85-2.82.99-6.43,1.39-9.27,2.71l-5.22,2.64v-77.62c0-.15.58-.41.64-.86,1.55-11,7.09-20.26,17.06-25.66,12.84-6.96,30.61-2.66,44.81-3.86,7.94,1.59,14.41,8.07,13.85,16.5Z"/>
      <path class="cls-1" d="M312.89,93.75v19.87c0,.45-2.82,6.33-3.38,7.11-1.44,2.02-5.1,5.02-7.32,6.17-1.53.79-9.51,3.12-9.51,3.97v25.87h-17.96v-55.87c0-.23,2.21-3.84,2.37-4,.15-.15,3.14-1.85,3.59-2.03.52-.21,3.22-1.09,3.4-1.09h28.82Z"/>
      <path class="cls-1" d="M247.53,315.12c2.72-.4,7.58,1.66,9.62,3.6,2.39,2.27,3.78,7.58,3.21,10.77-.69,3.87-5.27,8.97-9.22,9.52-17.38,2.4-20.17-21.49-3.61-23.89Z"/>
      <path class="cls-1" d="M65.6,71.34c1.97-.44,4.6,1.08,6.63,1.41,4.67.74,10.29.74,14.97,0,3.36-.53,5.2-2.69,8.6-.36,4.33,2.97,3.34,11.77,2.09,16.33-.84,3.09-4.51,10.01-7.3,11.43-2.35,1.2-3.92-.27-5.63-.4-2.87-.21-6.88-.21-9.76-.03-1.82.11-3.12,1.11-5.23.8-2.43-.35-6.53-6.61-7.48-9-2.01-5.03-3.87-18.62,3.12-20.18Z"/>
    </g>
  </g>
</svg>