<?xml version="1.0" encoding="UTF-8"?>
<svg id="Layer_2" data-name="Layer 2" xmlns="http://www.w3.org/2000/svg" viewBox="0 0 322.93 572.97">
  <defs>
    <style>
      .cls-1 {
        fill: none;
        stroke: #fff;
        stroke-miterlimit: 50;
        stroke-width: 37.5px;
      }
    </style>
  </defs>
  <g id="Layer_1-2" data-name="Layer 1">
    <path class="cls-1" d="M282.68,18.75H111.31L18.81,297.25c-.21.66.16,1.36.82,1.57.1.03.2.05.31.06h106.12c.69-.03,1.27.5,1.31,1.19,0,.15-.01.29-.06.43l-82.13,245.5c-1.09,3.28.69,6.81,3.97,7.9,2.59.86,5.44-.06,7.03-2.27l247.75-340.12c.41-.55.3-1.34-.25-1.75-.22-.16-.48-.25-.75-.25h-111.37c-.75-.08-1.3-.76-1.21-1.52.01-.12.04-.24.09-.36L283.81,20.13c.07-.69-.43-1.3-1.11-1.37,0,0,0,0-.01,0Z"/>
  </g>
</svg>