<?xml version="1.0" encoding="UTF-8"?>
<svg id="Layer_2" data-name="Layer 2" xmlns="http://www.w3.org/2000/svg" viewBox="0 0 599.47 591.67">
  <defs>
    <style>
      .cls-1 {
        fill: #fff;
      }
    </style>
  </defs>
  <g id="Layer_1-2" data-name="Layer 1">
    <path class="cls-1" d="M299.74,591.67c-59.3-.05-117.25-17.68-166.53-50.64-49.29-32.97-87.7-79.8-110.38-134.59C.14,351.65-5.8,291.37,5.75,233.21c11.55-58.16,40.08-111.59,81.99-153.54,2.3-2.36,5.05-4.23,8.08-5.51,3.03-1.28,6.29-1.94,9.59-1.94s6.55.66,9.59,1.94c3.03,1.28,5.78,3.15,8.08,5.51,4.68,4.69,7.31,11.04,7.31,17.67s-2.63,12.98-7.31,17.67c-24.56,22.89-44.26,50.49-57.93,81.15-13.66,30.67-21.01,63.77-21.6,97.34-.59,33.57,5.58,66.91,18.16,98.04,12.57,31.13,31.29,59.41,55.03,83.15,23.74,23.74,52.02,42.46,83.15,55.03,31.13,12.57,64.47,18.75,98.04,18.16,33.57-.59,66.67-7.94,97.34-21.6,30.67-13.67,58.27-33.37,81.15-57.93,23.26-23.17,41.72-50.7,54.31-81.02,12.59-30.32,19.08-62.82,19.08-95.65s-6.48-65.34-19.08-95.65c-12.6-30.32-31.05-57.85-54.31-81.01-4.68-4.69-7.31-11.04-7.31-17.67s2.63-12.98,7.31-17.67c2.3-2.36,5.05-4.23,8.08-5.51,3.03-1.28,6.29-1.94,9.59-1.94s6.55.66,9.59,1.94c3.03,1.28,5.78,3.15,8.08,5.51,41.9,41.95,70.43,95.39,81.99,153.54,11.55,58.16,5.61,118.44-17.07,173.22-22.68,54.79-61.09,101.62-110.38,134.59-49.29,32.97-107.24,50.59-166.53,50.64Z"/>
    <path class="cls-1" d="M299.74,316.67c-6.6-.09-12.91-2.75-17.58-7.42-4.67-4.67-7.33-10.98-7.42-17.58V25c0-6.63,2.63-12.99,7.32-17.68,4.69-4.69,11.05-7.32,17.68-7.32s12.99,2.63,17.68,7.32c4.69,4.69,7.32,11.05,7.32,17.68v266.67c-.09,6.6-2.75,12.91-7.42,17.58-4.67,4.67-10.98,7.33-17.58,7.42Z"/>
  </g>
</svg>