<?xml version="1.0" encoding="UTF-8"?>
<svg id="Layer_2" data-name="Layer 2" xmlns="http://www.w3.org/2000/svg" viewBox="0 0 800 463.93">
  <defs>
    <style>
      .cls-1 {
        fill: #fff;
      }
    </style>
  </defs>
  <g id="Capa_1" data-name="Capa 1">
    <g>
      <path class="cls-1" d="M794.32,186.17l-119.67-55.74c-1.3-.6-2.72-.92-4.15-.92h-57.38c-1.43,0-2.85.31-4.15.92l-46.67,21.73v-21.01h16.39c4.32,0,8.14-2.82,9.4-6.96s-.31-8.61-3.9-11.03l-34.2-23.12V9.84c0-5.43-4.4-9.84-9.84-9.84h-45.9c-5.43,0-9.84,4.4-9.84,9.84v35.88l-16.62-11.24c-1.63-1.1-3.55-1.69-5.51-1.69h-124.59c-1.96,0-3.88.59-5.51,1.69l-16.62,11.24V9.84c0-5.43-4.4-9.84-9.84-9.84h-45.9c-5.43,0-9.84,4.4-9.84,9.84v80.21l-34.2,23.12c-3.58,2.42-5.16,6.9-3.9,11.03,1.27,4.13,5.08,6.96,9.4,6.96h16.39v21.01l-46.67-21.73c-1.3-.6-2.72-.92-4.15-.92h-57.38c-1.43,0-2.85.31-4.15.92L5.68,186.17c-4.18,1.95-6.45,6.54-5.45,11.04,1,4.5,4.99,7.71,9.6,7.71h14.75v249.18c0,5.43,4.4,9.84,9.84,9.84h731.15c5.43,0,9.84-4.4,9.84-9.84v-249.18h14.75c4.61,0,8.61-3.2,9.6-7.71,1-4.5-1.27-9.1-5.45-11.04ZM615.29,149.18h53.02l77.43,36.07h-183.45v-11.39l53-24.68ZM712.29,265.57h-111.48v-24.59h111.48v24.59ZM755.74,285.25v18.03h-193.44v-18.03h193.44ZM504.1,19.67h26.23v57.07l-26.23-17.73V19.67ZM340.72,52.46h118.56l87.29,59.02H253.42l87.29-59.02ZM269.67,19.67h26.23v39.34l-26.23,17.73V19.67ZM44.26,285.25h193.44v18.03H44.26v-18.03ZM196.72,265.57h-111.48v-24.59h111.48v24.59ZM131.69,149.18h53.02l53,24.68v11.39H54.25l77.43-36.07ZM237.71,204.92v60.66h-21.31v-34.43c0-5.43-4.4-9.84-9.84-9.84H75.41c-5.43,0-9.84,4.4-9.84,9.84v34.43h-21.31v-60.66h193.44ZM44.26,322.95h193.44v121.31H44.26v-121.31ZM327.87,444.26h-40.98v-86.07c0-11.3,9.19-20.49,20.49-20.49s20.49,9.19,20.49,20.49v86.07ZM420.49,444.26h-40.98v-86.07c0-11.3,9.19-20.49,20.49-20.49s20.49,9.19,20.49,20.49v86.07ZM513.11,444.26h-40.98v-86.07c0-11.3,9.19-20.49,20.49-20.49s20.49,9.19,20.49,20.49v86.07ZM532.79,444.26v-86.07c0-22.15-18.02-40.16-40.16-40.16s-40.16,18.02-40.16,40.16v86.07h-12.3v-86.07c0-22.15-18.02-40.16-40.16-40.16s-40.16,18.02-40.16,40.16v86.07h-12.3v-86.07c0-22.15-18.02-40.16-40.16-40.16s-40.16,18.02-40.16,40.16v86.07h-9.84V131.15h285.25v313.11h-9.84ZM562.29,444.26v-121.31h193.44v121.31h-193.44ZM755.74,265.57h-23.77v-34.43c0-5.43-4.4-9.84-9.84-9.84h-131.15c-5.43,0-9.84,4.4-9.84,9.84v34.43h-18.85v-60.66h193.44v60.66Z"/>
      <path class="cls-1" d="M307.38,152.46c-22.15,0-40.16,18.02-40.16,40.16v71.31c0,5.43,4.4,9.84,9.84,9.84h60.66c5.43,0,9.84-4.4,9.84-9.84v-71.31c0-22.15-18.02-40.16-40.16-40.16ZM327.87,254.1h-40.98v-61.48c0-11.3,9.19-20.49,20.49-20.49s20.49,9.19,20.49,20.49v61.48Z"/>
      <path class="cls-1" d="M400,152.46c-22.15,0-40.16,18.02-40.16,40.16v71.31c0,5.43,4.4,9.84,9.84,9.84h60.66c5.43,0,9.84-4.4,9.84-9.84v-71.31c0-22.15-18.02-40.16-40.16-40.16ZM420.49,254.1h-40.98v-61.48c0-11.3,9.19-20.49,20.49-20.49s20.49,9.19,20.49,20.49v61.48Z"/>
      <path class="cls-1" d="M492.62,152.46c-22.15,0-40.16,18.02-40.16,40.16v71.31c0,5.43,4.4,9.84,9.84,9.84h60.66c5.43,0,9.84-4.4,9.84-9.84v-71.31c0-22.15-18.02-40.16-40.16-40.16ZM513.11,254.1h-40.98v-61.48c0-11.3,9.19-20.49,20.49-20.49s20.49,9.19,20.49,20.49v61.48Z"/>
      <path class="cls-1" d="M218.85,336.06h-63.93c-5.43,0-9.84,4.4-9.84,9.84v63.93c0,5.43,4.4,9.84,9.84,9.84h63.93c5.43,0,9.84-4.4,9.84-9.84v-63.93c0-5.43-4.4-9.84-9.84-9.84ZM209.02,400h-44.26v-44.26h44.26v44.26Z"/>
      <path class="cls-1" d="M127.05,336.06h-63.93c-5.43,0-9.84,4.4-9.84,9.84v63.93c0,5.43,4.4,9.84,9.84,9.84h63.93c5.43,0,9.84-4.4,9.84-9.84v-63.93c0-5.43-4.4-9.84-9.84-9.84ZM117.21,400h-44.26v-44.26h44.26v44.26Z"/>
      <path class="cls-1" d="M734.43,336.06h-63.93c-5.43,0-9.84,4.4-9.84,9.84v63.93c0,5.43,4.4,9.84,9.84,9.84h63.93c5.43,0,9.84-4.4,9.84-9.84v-63.93c0-5.43-4.4-9.84-9.84-9.84ZM724.59,400h-44.26v-44.26h44.26v44.26Z"/>
      <path class="cls-1" d="M642.62,336.06h-63.93c-5.43,0-9.84,4.4-9.84,9.84v63.93c0,5.43,4.4,9.84,9.84,9.84h63.93c5.43,0,9.84-4.4,9.84-9.84v-63.93c0-5.43-4.4-9.84-9.84-9.84ZM632.79,400h-44.26v-44.26h44.26v44.26Z"/>
    </g>
  </g>
</svg>