<?xml version="1.0" encoding="UTF-8"?>
<svg id="Layer_2" data-name="Layer 2" xmlns="http://www.w3.org/2000/svg" viewBox="0 0 383.25 383.25">
  <g id="Layer_1-2" data-name="Layer 1">
    <g>
      <path d="M0,38.92C1.57,21.81,21.75,0,39.3,0h137.36v29.94H42.29c-5.75,0-12.97,8.67-12.38,14.57v294.23c.33,8.16,6.44,14.27,14.6,14.6h294.23c5.9.6,14.57-6.62,14.57-12.38v-134.36h29.94v137.36c0,18-21.82,37.25-38.92,39.3H38.92c-20.37-3.74-35.19-18.6-38.92-38.92V38.92Z"/>
      <polygon points="383.25 0 383.25 149.71 353.31 149.71 353.31 51.65 112.65 291.92 91.67 270.97 331.6 29.94 233.54 29.94 233.54 0 383.25 0"/>
    </g>
  </g>
</svg>