<?xml version="1.0" encoding="UTF-8"?>
<svg id="Layer_2" data-name="Layer 2" xmlns="http://www.w3.org/2000/svg" viewBox="0 0 681.09 666.63">
  <defs>
    <style>
      .cls-1 {
        fill: none;
        stroke: #fff;
        stroke-miterlimit: 50;
        stroke-width: 37.5px;
      }
    </style>
  </defs>
  <g id="Layer_1-2" data-name="Layer 1">
    <path class="cls-1" d="M428.71,624.1c-162.66,54.75-338.9-32.73-393.64-195.39C-19.68,266.05,67.8,89.81,230.46,35.07c162.66-54.75,338.9,32.73,393.64,195.39,10.74,31.91,16.22,65.35,16.23,99.02-1,25.21-4.06,50.29-9.12,75"/>
    <path class="cls-1" d="M402.83,566.35c-22.36,25.4-46.86,48.82-73.25,70"/>
    <path class="cls-1" d="M329.58,15.1c83.88,73.29,135.78,176.46,144.62,287.5,1.81,20.16,2.19,40.42,1.13,60.62"/>
    <path class="cls-1" d="M329.58,15.1c-92.06,80.24-145.27,196.13-146.13,318.25,0,202.5,91,262.5,145.75,303"/>
    <line class="cls-1" x1="59.21" y1="176.35" x2="601.46" y2="176.35"/>
    <line class="cls-1" x1="329.58" y1="14.98" x2="329.58" y2="636.35"/>
    <line class="cls-1" x1="67.71" y1="496.1" x2="392.58" y2="496.1"/>
    <line class="cls-1" x1="18.83" y1="333.35" x2="640.33" y2="325.73"/>
    <path class="cls-1" d="M599.21,640.1l55.38-55.5-100-100,56.87-36.37c2.26-1.33,3.01-4.25,1.67-6.51-.69-1.17-1.84-1.98-3.17-2.24l-191.13-44.75c-2.64-.54-5.21,1.17-5.75,3.8-.13.64-.13,1.3,0,1.95l41.5,194.75c.56,2.63,3.14,4.32,5.78,3.77,1.28-.27,2.39-1.04,3.1-2.14l35.75-56.75,100,100Z"/>
  </g>
</svg>